<svg width="19" height="24" viewBox="0 0 19 24" fill="none" xmlns="http://www.w3.org/2000/svg">
<rect opacity="0.01" width="24" height="24" fill="#F1F1F2"/>
<path d="M12 8.425C12 11.225 14.325 13.5 17.175 13.5C19.275 13.5 21.2 12.25 22 10.35C21.575 10.45 21.15 10.5 20.725 10.5C17.85 10.5 15.525 8.25 15.525 5.425C15.525 4.75 15.65 4.1 15.925 3.5C13.625 4.075 12 6.1 12 8.425Z" fill="url(#paint0_radial_0_429)"/>
<circle cx="11.25" cy="13" r="6" fill="url(#paint1_radial_0_429)"/>
<rect x="7" y="15.5" width="11" height="5" fill="url(#paint2_radial_0_429)"/>
<circle cx="18" cy="16.5" r="4" fill="url(#paint3_radial_0_429)"/>
<circle cx="7" cy="15.5" r="5" fill="url(#paint4_radial_0_429)"/>
<defs>
<radialGradient id="paint0_radial_0_429" cx="0" cy="0" r="1" gradientUnits="userSpaceOnUse" gradientTransform="translate(19.1417 13.9188) rotate(180) scale(9.03719)">
<stop stop-color="#FFA141"/>
<stop offset="0.1746" stop-color="#FFA141"/>
<stop offset="0.3575" stop-color="#FFA63B"/>
<stop offset="0.6011" stop-color="#FFB62A"/>
<stop offset="0.8778" stop-color="#FFD00F"/>
<stop offset="1" stop-color="#FFDD00"/>
</radialGradient>
<radialGradient id="paint1_radial_0_429" cx="0" cy="0" r="1" gradientUnits="userSpaceOnUse" gradientTransform="translate(11.3645 19.0406) scale(17.6241)">
<stop stop-color="#E6E7E8"/>
<stop offset="0.4218" stop-color="#E6E7E8"/>
<stop offset="1" stop-color="white"/>
</radialGradient>
<radialGradient id="paint2_radial_0_429" cx="0" cy="0" r="1" gradientUnits="userSpaceOnUse" gradientTransform="translate(12.6048 20.5166) rotate(-90) scale(17.0166 7.73482)">
<stop stop-color="#E6E7E8"/>
<stop offset="0.4218" stop-color="#E6E7E8"/>
<stop offset="1" stop-color="white"/>
</radialGradient>
<radialGradient id="paint3_radial_0_429" cx="0" cy="0" r="1" gradientUnits="userSpaceOnUse" gradientTransform="translate(18.0763 20.5271) scale(11.7494)">
<stop stop-color="#E6E7E8"/>
<stop offset="0.4218" stop-color="#E6E7E8"/>
<stop offset="1" stop-color="white"/>
</radialGradient>
<radialGradient id="paint4_radial_0_429" cx="0" cy="0" r="1" gradientUnits="userSpaceOnUse" gradientTransform="translate(7.09545 20.5338) scale(14.6867)">
<stop stop-color="#E6E7E8"/>
<stop offset="0.4218" stop-color="#E6E7E8"/>
<stop offset="1" stop-color="white"/>
</radialGradient>
</defs>
</svg>
