<svg width="48" height="48" viewBox="0 0 48 48" fill="none" xmlns="http://www.w3.org/2000/svg">
<rect opacity="0.01" width="48" height="48" fill="#F1F1F2"/>
<path d="M10.3498 44.5C10.0498 45.3 9.1998 45.7 8.4498 45.4C7.6498 45.1 7.2498 44.25 7.5498 43.5C7.7498 42.9 10.3498 38.5 11.4498 36.6C11.5498 36.4 11.8498 36.5 11.7998 36.75C11.4498 38.9 10.5998 43.9 10.3498 44.5Z" fill="url(#paint0_radial_0_559)"/>
<path d="M16.7502 40.5C16.4502 41.3 15.6002 41.7 14.8502 41.4C14.0502 41.1 13.6502 40.25 13.9502 39.5C14.1502 38.9 16.7502 34.5 17.8502 32.6C17.9502 32.4 18.2502 32.5 18.2002 32.75C17.8002 34.9 16.9502 39.9 16.7502 40.5Z" fill="url(#paint1_radial_0_559)"/>
<path d="M16.7502 40.5C16.4502 41.3 15.6002 41.7 14.8502 41.4C14.0502 41.1 13.6502 40.25 13.9502 39.5C14.1502 38.9 16.7502 34.5 17.8502 32.6C17.9502 32.4 18.2502 32.5 18.2002 32.75C17.8002 34.9 16.9502 39.9 16.7502 40.5Z" fill="url(#paint2_linear_0_559)"/>
<path d="M30.3996 44.5C30.0996 45.3 29.2496 45.7 28.4996 45.4C27.6996 45.1 27.2996 44.25 27.5996 43.5C27.7996 42.9 30.3996 38.5 31.4996 36.6C31.5996 36.4 31.8996 36.5 31.8496 36.75C31.4996 38.9 30.6496 43.9 30.3996 44.5Z" fill="url(#paint3_radial_0_559)"/>
<path d="M36.7502 40.5C36.4502 41.3 35.6002 41.7 34.8502 41.4C34.0502 41.1 33.6502 40.25 33.9502 39.5C34.1502 38.9 36.7502 34.5 37.8502 32.6C37.9502 32.4 38.2502 32.5 38.2002 32.75C37.8502 34.9 37.0002 39.9 36.7502 40.5Z" fill="url(#paint4_radial_0_559)"/>
<path d="M36.7502 40.5C36.4502 41.3 35.6002 41.7 34.8502 41.4C34.0502 41.1 33.6502 40.25 33.9502 39.5C34.1502 38.9 36.7502 34.5 37.8502 32.6C37.9502 32.4 38.2502 32.5 38.2002 32.75C37.8502 34.9 37.0002 39.9 36.7502 40.5Z" fill="url(#paint5_linear_0_559)"/>
<path d="M24 10.85C24 16.45 28.65 21 34.35 21C38.55 21 42.4 18.5 44 14.7C43.15 14.9 42.3 15 41.45 15C35.7 15 31.05 10.5 31.05 4.85C31.05 3.5 31.3 2.2 31.85 1C27.25 2.15 24 6.2 24 10.85Z" fill="url(#paint6_radial_0_559)"/>
<circle cx="22.5" cy="20" r="12" fill="url(#paint7_radial_0_559)"/>
<rect x="14" y="25" width="22" height="10" fill="url(#paint8_radial_0_559)"/>
<circle cx="36" cy="27" r="8" fill="url(#paint9_radial_0_559)"/>
<circle cx="14" cy="25" r="10" fill="url(#paint10_radial_0_559)"/>
<path d="M21.0499 29H26.6999C26.8499 29 26.9499 29.15 26.8999 29.3L23.6499 36C23.5999 36.15 23.6999 36.3 23.8499 36.3H28.9999C29.1999 36.3 29.2999 36.5 29.1499 36.65L20.2999 46.9C20.1499 47.1 19.8499 46.9 19.9499 46.7L22.2999 39.75C22.3499 39.6 22.2499 39.45 22.0999 39.45L19.0499 39.4C18.8999 39.4 18.7999 39.25 18.8499 39.15L20.8999 29.15C20.8999 29.05 20.9499 29 21.0499 29Z" fill="url(#paint11_radial_0_559)"/>
<defs>
<radialGradient id="paint0_radial_0_559" cx="0" cy="0" r="1" gradientUnits="userSpaceOnUse" gradientTransform="translate(8.46267 45.4462) rotate(-70.0193) scale(6.93444 4.63616)">
<stop stop-color="#26A9E0"/>
<stop offset="0.2835" stop-color="#26A9E0"/>
<stop offset="1" stop-color="#B3FDFF"/>
</radialGradient>
<radialGradient id="paint1_radial_0_559" cx="0" cy="0" r="1" gradientUnits="userSpaceOnUse" gradientTransform="translate(14.8271 41.4497) rotate(-70.0193) scale(6.93444 4.63616)">
<stop stop-color="#26A9E0"/>
<stop offset="0.2835" stop-color="#26A9E0"/>
<stop offset="1" stop-color="#B3FDFF"/>
</radialGradient>
<linearGradient id="paint2_linear_0_559" x1="15.2609" y1="33.1576" x2="15.2609" y2="36.2204" gradientUnits="userSpaceOnUse">
<stop stop-color="#231F20" stop-opacity="0.64"/>
<stop offset="0.4352" stop-color="#231F20" stop-opacity="0.28"/>
<stop offset="1" stop-color="#231F20" stop-opacity="0.01"/>
</linearGradient>
<radialGradient id="paint3_radial_0_559" cx="0" cy="0" r="1" gradientUnits="userSpaceOnUse" gradientTransform="translate(28.506 45.4464) rotate(-70.0193) scale(6.93444 4.63616)">
<stop stop-color="#26A9E0"/>
<stop offset="0.2835" stop-color="#26A9E0"/>
<stop offset="1" stop-color="#B3FDFF"/>
</radialGradient>
<radialGradient id="paint4_radial_0_559" cx="0" cy="0" r="1" gradientUnits="userSpaceOnUse" gradientTransform="translate(34.8705 41.4499) rotate(-70.0193) scale(6.93444 4.63616)">
<stop stop-color="#26A9E0"/>
<stop offset="0.2835" stop-color="#26A9E0"/>
<stop offset="1" stop-color="#B3FDFF"/>
</radialGradient>
<linearGradient id="paint5_linear_0_559" x1="35.3048" y1="33.1576" x2="35.3048" y2="36.2204" gradientUnits="userSpaceOnUse">
<stop stop-color="#231F20" stop-opacity="0.64"/>
<stop offset="0.4352" stop-color="#231F20" stop-opacity="0.28"/>
<stop offset="1" stop-color="#231F20" stop-opacity="0.01"/>
</linearGradient>
<radialGradient id="paint6_radial_0_559" cx="0" cy="0" r="1" gradientUnits="userSpaceOnUse" gradientTransform="translate(38.2834 21.8377) rotate(180) scale(18.0744)">
<stop stop-color="#FFA141"/>
<stop offset="0.1746" stop-color="#FFA141"/>
<stop offset="0.3575" stop-color="#FFA63B"/>
<stop offset="0.6011" stop-color="#FFB62A"/>
<stop offset="0.8778" stop-color="#FFD00F"/>
<stop offset="1" stop-color="#FFDD00"/>
</radialGradient>
<radialGradient id="paint7_radial_0_559" cx="0" cy="0" r="1" gradientUnits="userSpaceOnUse" gradientTransform="translate(22.729 32.0812) scale(35.2482)">
<stop stop-color="#E6E7E8"/>
<stop offset="0.4218" stop-color="#E6E7E8"/>
<stop offset="1" stop-color="white"/>
</radialGradient>
<radialGradient id="paint8_radial_0_559" cx="0" cy="0" r="1" gradientUnits="userSpaceOnUse" gradientTransform="translate(25.2096 35.0333) rotate(-90) scale(39.0333 17.7424)">
<stop stop-color="#E6E7E8"/>
<stop offset="0.4218" stop-color="#E6E7E8"/>
<stop offset="1" stop-color="white"/>
</radialGradient>
<radialGradient id="paint9_radial_0_559" cx="0" cy="0" r="1" gradientUnits="userSpaceOnUse" gradientTransform="translate(36.1527 35.0541) scale(23.4988)">
<stop stop-color="#E6E7E8"/>
<stop offset="0.4218" stop-color="#E6E7E8"/>
<stop offset="1" stop-color="white"/>
</radialGradient>
<radialGradient id="paint10_radial_0_559" cx="0" cy="0" r="1" gradientUnits="userSpaceOnUse" gradientTransform="translate(14.1909 35.0677) scale(29.3735)">
<stop stop-color="#E6E7E8"/>
<stop offset="0.4218" stop-color="#E6E7E8"/>
<stop offset="1" stop-color="white"/>
</radialGradient>
<radialGradient id="paint11_radial_0_559" cx="0" cy="0" r="1" gradientUnits="userSpaceOnUse" gradientTransform="translate(22.3596 47.1482) scale(17.9583 31.0963)">
<stop stop-color="#FFA141"/>
<stop offset="0.2215" stop-color="#FFA63B"/>
<stop offset="0.5167" stop-color="#FFB62A"/>
<stop offset="0.852" stop-color="#FFD00F"/>
<stop offset="1" stop-color="#FFDD00"/>
</radialGradient>
</defs>
</svg>
